<svg id="Layer_1" data-name="Layer 1" xmlns="http://www.w3.org/2000/svg" viewBox="0 0 351.46 303.04"><defs><style>.cls-1{fill:#010101;}</style></defs><path d="M-352.72,949.3c-40,.5-80,.16-120.07.19a19.53,19.53,0,0,1-6.54-1.14q-65.48-22.79-131-45.47c-14.43-5-27.56,1.56-32.35,16-3.06,9.2-6.14,18.39-9.06,27.64a4.61,4.61,0,0,1-3.94,3.61c-12.37,2.69-20.3,12.3-20.51,25-.16,10.09,0,20.19,0,30.29,0,4.33,1.79,7.38,6,8.89,5.13,1.84,8.91,5.37,11.88,9.83a36.81,36.81,0,0,1,5.72,26.42c-1.71,11.66-6.74,21.31-18.56,26-3.73,1.47-5,4.59-5,8.39v23.56c0,6.86.21,13.72,0,20.57-.65,17.27,12.81,28.2,28,28,40-.49,80-.15,120.07-.19a20,20,0,0,1,6.55,1.1q65.42,22.36,130.86,44.66c14.59,5,27.47-1.45,32.32-16,3-9,6-17.9,8.87-26.9.62-2,1.4-3,3.61-3.46,12.82-2.62,20.89-12.27,21-25.3.16-15.34,0-30.67.05-46,0-4.33-1.79-7.39-6-8.91a24.1,24.1,0,0,1-11.88-9.82,36.82,36.82,0,0,1-5.74-26.42c1.7-11.67,6.71-21.3,18.55-25.95,3.89-1.52,5.06-4.84,5.05-8.76,0-9.23-.27-18.46.05-27.68C-324.21,959.89-337.81,949.11-352.72,949.3Zm-273.72-27.88c1.59-4.25,5.59-5.26,10.8-3.46q31,10.69,62,21.46c8.1,2.81,16.19,5.66,24.29,8.48.89.32,1.91.38,2.63,1.44H-636C-632.78,939.92-629.86,930.58-626.44,921.42Zm260.21,238c-2.73,7.73-5.12,15.57-7.82,23.31-1.7,4.85-5.55,6.84-10.37,5.2q-44.07-15-88.1-30.19c-.32-.11-.62-.27-2-.87,36.11,0,71.13,0,106.15,0C-366.4,1156.85-365.32,1156.86-366.23,1159.43ZM-343,1003.27c-16.5,10.71-22.72,26.59-21.66,45.48.93,16.45,7.83,29.94,22.35,38.77a2.78,2.78,0,0,1,1.31,2.81c0,13.71,0,27.43-.07,41.14-.05,5.56-3.5,9-9,9.49-1.24.1-2.49,0-3.74,0H-468.25c-38.65,0-77.3,0-116,.1-3.59,0-4.56-1.09-4.12-4.35a20.16,20.16,0,0,0,0-4.11c-.39-4.88-3.67-8.08-8.14-8-4.3.07-7.5,3.21-7.85,7.9a51.9,51.9,0,0,0,0,6.36c.07,1.6-.5,2.15-2.14,2.14-14.83-.06-29.67.07-44.51-.13-5.53-.07-9-3.84-9.08-9.37-.12-13.71,0-27.43-.11-41.14,0-1.9,1-2.52,2.29-3.36,29-18.63,28.9-65-.2-83.76a4,4,0,0,1-2.07-3.9c.08-7.86,0-15.71,0-23.57.06-6.85,3.57-10.44,10.32-10.46,14.21-.06,28.43,0,42.64-.08,2.45,0,2.94.81,2.82,3A20.36,20.36,0,0,0-604,975a8,8,0,0,0,7.65,6,8,8,0,0,0,7.65-6,20.37,20.37,0,0,0,.35-6.69c-.11-2.16.35-3.39,2.81-2.95a8.23,8.23,0,0,0,1.49,0h230.79c9.27,0,12.26,3,12.27,12.3,0,7.23,0,14.47,0,21.7A4,4,0,0,1-343,1003.27Z" transform="translate(676.27 -901.22)"/><path d="M-422.68,1015a8.23,8.23,0,0,1-2.81,6.3q-37.51,37.53-75.07,75c-3.68,3.66-8.36,3.7-11.66.44s-3.33-7.94.35-11.63q37.61-37.73,75.3-75.34c2.66-2.65,5.74-3.39,9.21-1.82A7.51,7.51,0,0,1-422.68,1015Z" transform="translate(676.27 -901.22)"/><path class="cls-1" d="M-588.31,1009.48c0,2.86.16,5.73,0,8.57-.33,4.88-3.63,8-8.15,7.92a7.75,7.75,0,0,1-7.8-7.86c-.22-5.83-.23-11.69,0-17.52a7.7,7.7,0,0,1,7.92-7.72c4.38,0,7.63,3,8,7.66.23,3,0,6,0,9Z" transform="translate(676.27 -901.22)"/><path class="cls-1" d="M-588.3,1052.92c0,2.74.13,5.48,0,8.21-.27,4.94-3.42,8.14-7.88,8.2-4.62.07-8-3.22-8.13-8.32-.16-5.47-.15-10.94,0-16.41.14-5.15,3.41-8.4,8.06-8.37s7.76,3.29,8,8.49c.11,2.73,0,5.47,0,8.2Z" transform="translate(676.27 -901.22)"/><path class="cls-1" d="M-588.3,1096.44c0,2.73.13,5.47,0,8.2-.31,4.9-3.56,8.08-8,8.06s-7.79-3.24-7.95-8.12c-.19-5.72-.21-11.45,0-17.16a7.72,7.72,0,0,1,7.81-7.84c4.52-.07,7.83,3,8.14,7.91C-588.15,1090.46-588.31,1093.45-588.3,1096.44Z" transform="translate(676.27 -901.22)"/><path d="M-506.48,989.25a26.21,26.21,0,0,0-26.09,25.84,26,26,0,0,0,26,25.87A25.84,25.84,0,0,0-480.76,1015,26,26,0,0,0-506.48,989.25Zm-.3,35.83a9.78,9.78,0,0,1-9.69-10.17,9.74,9.74,0,0,1,9.82-9.68,9.8,9.8,0,0,1,9.89,10A9.8,9.8,0,0,1-506.78,1025.08Z" transform="translate(676.27 -901.22)"/><path d="M-430.62,1065.34a25.81,25.81,0,0,0-25.84,25.91,26.07,26.07,0,0,0,26,25.84,26.1,26.1,0,0,0,25.67-25.85A25.86,25.86,0,0,0-430.62,1065.34Zm-.17,35.7a9.89,9.89,0,0,1-9.78-10.07,9.94,9.94,0,0,1,10.13-9.72,10,10,0,0,1,9.79,10.07A9.91,9.91,0,0,1-430.79,1101Z" transform="translate(676.27 -901.22)"/></svg>